<svg id="Layer_1_copy" data-name="Layer 1 copy" xmlns="http://www.w3.org/2000/svg" viewBox="0 0 488 115.14"><defs><style>.cls-1{fill:#ff6200;}</style></defs><path d="M6,273.58C6,242.75,25.67,218,50.47,218c12.08,0,20,5.42,24.8,12.86l10.52-39.36H121L90.75,304.57H55.57l2.34-8.68c-6.06,6.2-15.2,10.7-24.17,10.7C18.69,306.57,6,294.48,6,273.58Zm62.9-14.74c0-7.29-4.82-12.08-11.31-12.08C48,246.76,41,255.9,41,265.82c0,7.29,4.81,12.08,11.31,12.08C61.92,277.9,68.9,268.76,68.9,258.84Z" transform="translate(-6 -191.45)"/><path d="M154.45,281.79c5.74,0,11.16-2.33,17.05-6.8l16.26,17.82a52.81,52.81,0,0,1-36.25,13.78c-25.72,0-41.53-15-41.53-37.2,0-25.72,19.21-51.44,51.45-51.44,27.89,0,37.2,18.91,37.2,36.73a52,52,0,0,1-2.48,15.81H141.76C142.2,277.3,146.55,281.79,154.45,281.79ZM167.78,255a10.5,10.5,0,0,0,.6-3.72,8.84,8.84,0,0,0-9.14-9c-5.27,0-12.08,3.26-15.34,12.72Z" transform="translate(-6 -191.45)"/><path d="M216.59,219.94h35.18l-2.62,9.92c5.57-6.34,14.25-11.94,24.8-11.94,11.62,0,18.74,5.89,21.85,14,8.54-9,19.07-14,31-14,17.05,0,25.41,10.07,25.41,25.58a57.78,57.78,0,0,1-2.16,14.56l-12.4,46.49H302.47l11.3-42.16a25.5,25.5,0,0,0,.93-6.34c0-4.5-2-7.44-7.13-7.44-6.34,0-10.38,4.49-12.86,13.78l-11.3,42.16H248.23l11.3-42.16a25.45,25.45,0,0,0,.92-6.34c0-4.5-2-7.44-7.12-7.44-6.34,0-10.38,4.49-12.86,13.78l-11.31,42.16H194Z" transform="translate(-6 -191.45)"/><path d="M355.59,267.21c0-25.87,21.22-49.29,50.67-49.29,26.64,0,42.3,17.36,42.3,39.37,0,25.86-21.22,49.28-50.67,49.28C371.25,306.57,355.59,289.21,355.59,267.21Zm59.83-8.37c0-7.12-4.5-12.25-11.3-12.25-8.83,0-15.34,9-15.34,19.06,0,7.12,4.49,12.25,11.3,12.25C408.91,277.9,415.42,268.93,415.42,258.84Z" transform="translate(-6 -191.45)"/><circle class="cls-1" cx="465.29" cy="22.71" r="22.71"/></svg>